<svg xmlns="http://www.w3.org/2000/svg" xmlns:xlink="http://www.w3.org/1999/xlink" version="1.1" x="0px" y="0px" viewBox="0 0 100 100" enable-background="new 0 0 100 100" xml:space="preserve"><path fill="#000000" d="M51.002,66.275c2.762,0,5-2.238,5-5h-10C46.002,64.037,48.24,66.275,51.002,66.275z M34.002,63.275  c-2.209,0-4,0.672-4,1.5s1.791,1.5,4,1.5s4-0.672,4-1.5S36.211,63.275,34.002,63.275z M34.002,51.275c-2.762,0-5,2.238-5,5  s2.238,5,5,5s5-2.238,5-5S36.764,51.275,34.002,51.275z M32.002,55.275c-0.553,0-1-0.447-1-1s0.447-1,1-1s1,0.447,1,1  S32.555,55.275,32.002,55.275z M72.063,23.509c-3.968-4.506-8.172-8.005-11.93-10.415c-3.798-2.391-6.969-3.768-9.632-3.82  c-2.666,0.053-5.837,1.43-9.634,3.82c-11.195,7.191-26.824,24.361-26.866,48.68c-0.004,8.296,4.233,15.74,10.857,21.01  c6.634,5.283,15.684,8.49,25.643,8.49c9.956,0,19.01-3.207,25.641-8.49c6.624-5.27,10.86-12.714,10.857-21.01  C87,45.584,79.992,32.5,72.063,23.509z M73.65,79.655c-5.854,4.673-14.055,7.62-23.148,7.62c-9.096,0-17.294-2.947-23.15-7.62  c-5.86-4.684-9.35-10.989-9.35-17.882c-0.003-14.996,6.489-27.165,13.937-35.622c3.719-4.224,7.67-7.5,11.087-9.687  c3.293-2.154,6.246-3.192,7.396-3.192c0.028,0,0.056,0,0.081,0.002c1.086-0.053,4.1,0.983,7.474,3.19  c10.319,6.594,25.066,22.85,25.027,45.309C82.999,68.666,79.51,74.972,73.65,79.655z M68.002,63.275c-2.209,0-4,0.672-4,1.5  s1.791,1.5,4,1.5s4-0.672,4-1.5S70.211,63.275,68.002,63.275z M68.002,51.275c-2.762,0-5,2.238-5,5s2.238,5,5,5s5-2.238,5-5  S70.764,51.275,68.002,51.275z M66.002,55.275c-0.553,0-1-0.447-1-1s0.447-1,1-1s1,0.447,1,1S66.555,55.275,66.002,55.275z"></path></svg>